Coordinates
version=1
nRows=17
nColumns=34
inDegrees=yes

Units are S.I. units (second, meters, Newtons, ...)
If the header above contains a line with 'inDegrees', this indicates whether rotational values are in degrees (yes) or radians (no).

endheader
time	pelvis_tilt	pelvis_list	pelvis_rotation	pelvis_tx	pelvis_ty	pelvis_tz	hip_flexion_r	hip_adduction_r	hip_rotation_r	knee_angle_r	ankle_angle_r	subtalar_angle_r	mtp_angle_r	hip_flexion_l	hip_adduction_l	hip_rotation_l	knee_angle_l	ankle_angle_l	subtalar_angle_l	mtp_angle_l	lumbar_extension	lumbar_bending	lumbar_rotation	arm_flex_r	arm_add_r	arm_rot_r	elbow_flex_r	pro_sup_r	arm_flex_l	arm_add_l	arm_rot_l	elbow_flex_l	pro_sup_l
      4.96666670	    -13.93318358	     -8.40453122	     -4.90666490	     -8.51446671	      0.76774658	      0.45859060	     25.31055363	     11.45565140	      0.08124802	     52.07218174	     36.86622292	    -20.61812252	      0.00000000	     22.01823074	     -7.28031213	      1.27122982	     83.00999415	      3.37940853	    -20.40444945	      0.00000000	    -21.08496568	     11.44813767	      8.35911242	   -353.16221382	     -7.75543714	      1.66168225	    107.84278624	    117.47576716	   -355.75438675	      0.98733556	    -23.28970605	     14.62556683	    115.46032359
      4.98333330	    -14.83566447	     -8.83152480	     -4.33241500	     -8.49974460	      0.76923390	      0.45868355	     24.27019915	     11.54264342	     -0.82322683	     50.68532173	     37.14416518	    -20.04049557	      0.00000000	     28.66385840	     -6.41084524	      3.32739556	     87.12989362	      6.82156236	    -19.71975272	      0.00000000	    -19.93785352	     11.97774644	      9.47243208	   -350.33797528	     -8.78067389	      1.80364321	    109.04979058	    117.44996165	   -356.33348476	      0.02648214	    -25.20940502	     12.25319144	    114.55042611
      5.00000000	    -16.86847283	     -8.61775165	     -3.75851025	     -8.48630783	      0.76506197	      0.46150098	     24.83303705	     11.12958117	     -1.84794708	     50.78735291	     35.49273417	    -21.16998041	      0.00000000	     36.34836490	     -5.14818980	      4.70285613	     89.91535085	      7.36327218	    -21.24233954	      0.00000000	    -18.41026741	     11.73250056	     10.63057414	   -350.17949061	     -9.30774740	      0.96776205	    112.56466650	    117.26378188	   -356.86799015	     -1.31513295	    -26.82805807	     11.59737112	    113.60625349
      5.01666670	    -18.64690605	     -8.15709506	     -2.61765207	     -8.46998431	      0.76668199	      0.46142565	     25.09785400	     10.29434087	     -3.11356954	     51.09976280	     34.06056159	    -21.96372451	      0.00000000	     43.31205917	     -3.22433786	      5.84385500	     89.66393149	     12.32307916	    -20.43219971	      0.00000000	    -16.52371847	     11.12271405	     11.79847899	   -350.73850620	     -9.47556684	     -1.33563126	    115.68656256	    116.93519651	   -357.36141890	     -2.93211922	    -28.58313559	     10.44677874	    112.45288679
      5.03333330	    -19.20224070	     -8.11103584	     -1.40783074	     -8.43793638	      0.77277707	      0.46160346	     22.94564529	      9.70202014	     -4.44846574	     48.31649212	     29.44917455	    -23.90907103	      0.00000000	     47.44884525	     -1.85266351	      6.75420021	     86.87864454	     15.88007464	    -19.40513705	      0.00000000	    -15.76053132	     11.05776179	     12.45403082	   -351.30783448	     -9.45588668	     -3.33110066	    118.01654793	    116.59761344	   -358.87862085	     -4.06020832	    -30.07772903	     10.18105049	    111.26024037
      5.05000000	    -19.49105601	     -7.75047488	     -0.13080364	     -8.41792343	      0.78281108	      0.45742399	     20.45361312	      8.56719733	     -6.25691383	     45.31152938	     24.94537381	    -26.66863404	      0.00000000	     50.88067959	      0.18526706	      7.57380995	     83.28352907	     21.35300137	    -16.74495084	      0.00000000	    -16.10860598	     10.89630130	     12.97520066	   -351.87515356	     -9.72052453	     -4.41765789	    120.50788226	    116.27280277	   -358.82236788	     -4.71517644	    -31.51841192	     10.46332570	    109.93617633
      5.06666670	    -18.01107115	     -7.62131374	      1.43353178	     -8.38701739	      0.80119542	      0.45301906	     15.00874792	      8.00145159	     -7.36939253	     40.35162837	     19.42140306	    -28.58399868	      0.00000000	     51.49097288	      2.18694799	      8.56752910	     77.43319916	     25.08010189	    -13.71736856	      0.00000000	    -17.04602203	     11.14141217	     11.93864073	   -353.22416952	     -9.95947853	     -6.20625686	    120.13922773	    116.11546465	   -360.05221120	     -5.13034279	    -32.62165072	      9.86336008	    109.04883535
      5.08333330	    -15.71706996	     -8.11303610	      3.22283007	     -8.34158390	      0.81504570	      0.44948641	      6.95852918	      8.73105103	     -8.21970916	     30.30015235	     16.51928021	    -27.89163325	      0.00000000	     49.75213276	      3.49232938	     10.19157347	     71.51932853	     29.88841264	     -9.37790877	      0.00000000	    -18.57785338	     12.50740592	     11.26836993	   -355.24347645	     -9.89225184	     -7.03851251	    119.81646533	    116.11535944	   -361.23128316	     -4.94042370	    -33.85955404	     10.14094260	    108.05493564
      5.10000000	    -12.85862964	     -5.38010480	      5.61928343	     -8.32826307	      0.82612732	      0.45010496	     -2.76555682	      6.71116707	    -10.06469395	     22.21333678	     10.59521382	    -28.37914454	      0.00000000	     47.03563290	      7.77428207	     10.57608770	     64.57784571	     27.95619000	     -9.37037511	      0.00000000	    -21.32027358	      9.98189442	      9.12142592	   -356.15618878	     -8.23125748	     -7.89666309	    118.69286576	    116.31397375	   -361.80340022	     -5.86171400	    -35.62465751	     11.66961464	    106.79042715
      5.11666670	    -10.01365368	     -1.40968006	      7.18546602	     -8.28916675	      0.83478283	      0.44698001	    -12.31799164	      3.62957617	    -14.52065171	     14.77246779	     -3.36792023	    -29.97590651	      0.00000000	     43.79759532	     12.13798693	      9.74106998	     59.33528421	     23.00841575	    -11.68988883	      0.00000000	    -24.06119843	      6.03002322	      7.22891070	   -357.36015811	     -6.41731342	     -7.15023363	    119.08288240	    117.02850232	   -362.90962991	     -6.66964779	    -39.33894512	     14.35343268	    104.53614666
      5.13333330	    -11.12108891	      2.81140687	      8.30753600	     -8.25791417	      0.84398104	      0.44614195	    -17.02965485	      0.10939780	    -20.43400477	      9.43410133	    -14.89438513	    -26.65428848	      0.00000000	     44.94077316	     16.89819621	      8.50917139	     52.21279465	     15.03908823	    -17.22535941	      0.00000000	    -22.62829138	      1.29262479	      4.75613335	   -359.25093254	     -3.90812554	     -8.18789386	    117.00352511	    117.41355317	   -363.35574161	     -7.67580838	    -40.45155219	     14.69044814	    103.93130511
      5.15000000	    -10.71065393	      6.67041256	      8.68027569	     -8.22136054	      0.84753933	      0.44616223	    -20.73559543	     -3.41103471	    -24.36289455	      7.77775714	    -26.07422192	    -23.76407675	      0.00000000	     43.30343608	     20.16493801	      6.75725649	     44.00501480	      6.41716854	    -23.44403256	      0.00000000	    -23.48490194	     -3.27607009	      2.04555378	   -360.29173857	     -1.31120217	     -8.77446359	    115.06665604	    118.02687879	   -363.86387738	     -8.41293014	    -41.72185050	     14.72292970	    103.31610867
      5.16666670	    -10.91216265	      9.93825400	      9.25028697	     -8.18263079	      0.84990607	      0.44579481	    -23.04813277	     -6.40729726	    -24.92880024	      7.13476884	    -27.46760523	    -20.04078541	      0.00000000	     41.37619697	     22.92622049	      4.94983845	     35.83893716	     -3.08326932	    -29.87191452	      0.00000000	    -23.17255899	     -7.33313985	     -0.37801252	   -362.65268007	      0.78187717	     -8.79711565	    113.22529918	    118.86472731	   -364.35255603	     -9.03588863	    -43.05194043	     14.26940623	    102.73864093
      5.18333330	    -12.32658465	     11.93952714	      9.78076019	     -8.15557936	      0.84690911	      0.44655674	    -22.58778543	     -9.01320254	    -24.31073701	     11.03825830	    -19.04615224	    -14.00130008	      0.00000000	     40.84026881	     24.76077089	      3.56796808	     29.57660066	    -10.88305815	    -34.02857596	      0.00000000	    -21.08722390	    -10.35844930	     -1.83005614	   -364.24913342	      2.53793498	     -8.62879266	    111.73287347	    119.74817918	   -363.76353321	     -9.33298695	    -44.45161857	     13.75572189	    102.24705452
      5.20000000	    -12.08283536	     13.69221031	     10.61005264	     -8.12153037	      0.84583560	      0.45072598	    -22.98446887	    -10.72359100	    -21.77004632	     16.67969272	    -12.04376080	    -12.12317125	      0.00000000	     38.11362982	     26.40104274	      2.40498422	     25.67871488	    -13.63980285	    -35.00000000	      0.00000000	    -20.56009052	    -13.54790556	     -3.08770248	   -365.90774772	      4.44601338	     -9.41817888	    110.42381043	    119.74817918	   -363.32277548	    -10.00550180	    -44.97898435	     14.23925730	    102.12350445
      5.21666670	    -11.60652058	     14.56280180	     10.90114256	     -8.08680578	      0.84565647	      0.44932479	    -23.86544676	    -11.53821458	    -19.45541412	     20.58836779	     -5.86755665	     -9.91732167	      0.00000000	     36.11877271	     27.19741800	      1.38645052	     26.77779591	    -13.51366657	    -35.00000000	      0.00000000	    -20.03782270	    -15.60588481	     -3.62344871	   -367.31790097	      5.84890123	    -10.52886321	    109.00558449	    119.74817918	   -362.81028079	    -10.05467133	    -45.08251415	     14.87430203	    102.17309364
      5.23333330	    -10.91282166	     15.37307635	     11.55628376	     -8.04816453	      0.83993489	      0.45294998	    -24.17473058	    -12.14538148	    -17.83291269	     25.51414489	     -2.44588963	     -8.33881192	      0.00000000	     33.69836576	     27.90082415	      0.32924487	     29.89132598	    -10.76530077	    -35.00000000	      0.00000000	    -19.73941807	    -17.76795247	     -4.52851521	   -368.83651720	      7.23536902	    -11.73160276	    107.59706807	    119.74817918	   -362.12106168	    -10.39184974	    -45.30750544	     14.91818429	    102.28023554
